# Blender 3.5.0
# www.blender.org
mtllib float_R_arm.mtl
o 立方体.004
v -0.405772 0.077201 0.308557
v -0.401589 0.111365 -0.159922
v -0.409036 0.111365 -0.022101
v -0.345511 -0.020511 0.311813
v -0.320260 -0.020511 -0.155527
v -0.327706 -0.020511 -0.017707
v -0.747969 -0.119527 0.290067
v -0.722717 -0.119527 -0.177273
v -0.730164 -0.119527 -0.039453
v -0.648220 -0.281270 0.295457
v -0.622968 -0.281270 -0.171884
v -0.630415 -0.281270 -0.034063
v -0.692372 -0.098688 -0.112776
v -0.701720 -0.091446 -0.022673
v -0.879050 -0.246976 0.273160
v -0.853799 -0.246976 -0.194180
v -0.861246 -0.246976 -0.056360
v -0.797721 -0.378852 0.277555
v -0.772469 -0.378852 -0.189786
v -0.779916 -0.378852 -0.051965
v -0.417938 0.111365 0.142659
v -0.336609 -0.020511 0.147053
v -0.739066 -0.119527 0.125307
v -0.639318 -0.281270 0.130697
v -0.870148 -0.246976 0.108400
v -0.788818 -0.378852 0.112795
v -0.400134 0.111365 -0.186861
v -0.318804 -0.020511 -0.182467
v -0.621513 -0.281270 -0.198823
v -0.852343 -0.246976 -0.221119
v -0.771013 -0.378852 -0.216725
v -0.336730 0.130000 0.257103
v -0.324320 0.130000 0.027437
v -0.263270 0.010886 0.261072
v -0.245671 0.010886 -0.064650
v -0.250861 0.010886 0.031407
v -0.619703 -0.045023 0.241813
v -0.602104 -0.045023 -0.083909
v -0.607294 -0.045023 0.012148
v -0.546244 -0.164137 0.245782
v -0.528645 -0.164137 -0.079940
v -0.533835 -0.164137 0.016117
v -0.855899 -0.260496 0.236071
v -0.838299 -0.260496 -0.089652
v -0.843489 -0.260496 0.006405
v -0.782440 -0.379610 0.240040
v -0.764840 -0.379610 -0.085682
v -0.770030 -0.379610 0.010374
v -1.037620 -0.360372 0.150112
v -1.020020 -0.360372 -0.175611
v -1.025210 -0.360372 -0.079554
v -0.911647 -0.564636 0.156919
v -0.894048 -0.564636 -0.168804
v -0.899238 -0.564636 -0.072747
v -0.330525 0.130000 0.142270
v -0.257066 0.010886 0.146239
v -0.613499 -0.045023 0.126980
v -0.540040 -0.164137 0.130950
v -0.849694 -0.260496 0.121238
v -0.776235 -0.379610 0.125207
v -1.031415 -0.360372 0.035279
v -0.905443 -0.564636 0.042086
v -0.318115 0.130000 -0.087395
v -0.244656 0.010886 -0.083426
v -0.601089 -0.045023 -0.102685
v -0.527630 -0.164137 -0.098716
v -0.837285 -0.260496 -0.108428
v -0.763825 -0.379610 -0.104458
v -1.019006 -0.360372 -0.194387
v -0.893033 -0.564636 -0.187580
vn -0.5247 0.8508 -0.0284
vn -0.0540 -0.0000 0.9985
vn -0.1003 -0.0287 0.9945
vn -0.6512 0.7581 -0.0352
vn 0.0540 -0.0000 -0.9985
vn -0.5787 0.7894 0.2050
vn 0.6512 -0.7581 0.0352
vn 0.5243 -0.8511 0.0283
vn -0.5439 0.8386 -0.0294
vn 0.1003 0.0287 -0.9945
vn -0.6941 0.7189 -0.0375
vn 0.5439 -0.8386 0.0294
vn -0.5824 0.8123 -0.0315
vn -0.4971 0.8673 -0.0269
vn 0.6575 -0.7425 0.1279
vn -0.0350 0.0117 0.9993
vn 0.6730 -0.7387 0.0364
vn 0.5247 -0.8508 0.0284
vn 0.3390 0.1783 -0.9237
vn 0.8098 -0.5851 0.0438
vn 0.0350 -0.0117 -0.9993
vn -0.6730 0.7387 -0.0364
vn 0.8496 0.5255 0.0459
vn -0.8496 -0.5255 -0.0459
vn -0.4722 0.8811 -0.0255
vn -0.3390 -0.1783 0.9237
vn 0.4722 -0.8811 0.0255
vn -0.8098 0.5851 -0.0438
vt 0.320621 0.535498
vt 0.713193 0.114501
vt 0.237661 0.420895
vt 0.762376 0.535420
vt 0.631045 0.114431
vt 0.237661 0.420895
vt 0.655249 0.114428
vt 0.835670 0.842562
vt 0.342058 0.535440
vt 0.960279 0.420855
vt 0.733439 0.535420
vt 0.777796 0.842562
vt 0.318045 0.456689
vt 0.713170 0.035664
vt 0.276535 0.702683
vt 0.631095 0.035673
vt 0.757251 0.456604
vt 0.276535 0.678478
vt 0.655299 0.035670
vt 0.353528 0.456593
vt 0.835681 0.921154
vt 0.959066 0.499535
vt 0.721760 0.456604
vt 0.777808 0.921154
vt 0.268615 0.691676
vt 0.268644 0.675810
vt 0.325297 0.420934
vt 0.711522 0.000000
vt 0.237661 0.420895
vt 0.629447 0.000009
vt 0.749936 0.420855
vt 0.237661 0.420895
vt 0.653651 0.000006
vt 0.354228 0.420855
vt 0.833962 0.956878
vt 0.960279 0.535289
vt 0.721000 0.420855
vt 0.776089 0.956878
vt 0.684184 0.114425
vt 0.806733 0.842562
vt 0.684235 0.035667
vt 0.806744 0.921154
vt 0.682586 0.000003
vt 0.805025 0.956878
vt 0.237661 0.420895
vt 0.965010 0.420921
vt 0.748859 0.842562
vt 0.963796 0.499600
vt 0.748871 0.921154
vt 0.237661 0.420895
vt 0.965010 0.535354
vt 0.747152 0.956878
vt 0.765390 0.670510
vt 0.626313 0.249673
vt 0.805720 0.671029
vt 0.600182 0.249675
vt 0.247999 0.596302
vt 0.930449 0.708655
vt 0.287066 0.171271
vt 0.288234 0.593455
vt 0.626313 0.316142
vt 0.764527 0.736970
vt 0.313203 0.104802
vt 0.953093 0.712917
vt 0.804857 0.737490
vt 0.600182 0.316144
vt 0.243307 0.530009
vt 0.287066 0.104802
vt 0.925858 0.774962
vt 0.283543 0.527162
vt 0.762376 0.799521
vt 0.615282 0.378841
vt 0.302145 0.042113
vt 0.948938 0.650560
vt 0.802707 0.800040
vt 0.237661 0.467769
vt 0.589150 0.378843
vt 0.920202 0.837294
vt 0.276009 0.042113
vt 0.277896 0.464923
vt 0.617413 0.420851
vt 0.775185 0.841783
vt 0.794953 0.359442
vt 0.304532 0.000000
vt 0.313124 0.845174
vt 0.960294 0.607877
vt 0.815516 0.842302
vt 0.794953 0.399778
vt 0.572602 0.420855
vt 0.750133 0.359442
vt 0.247999 0.425165
vt 0.259712 0.000000
vt 0.313124 0.889993
vt 0.930449 0.879998
vt 0.750133 0.399778
vt 0.288234 0.422319
vt 0.785555 0.670769
vt 0.268116 0.594879
vt 0.784692 0.737230
vt 0.263425 0.528585
vt 0.782542 0.799781
vt 0.257779 0.466346
vt 0.795350 0.842043
vt 0.794953 0.379610
vt 0.750133 0.379610
vt 0.268116 0.423742
vt 0.825886 0.671289
vt 0.308352 0.592032
vt 0.933739 0.708882
vt 0.956387 0.712763
vt 0.825023 0.737750
vt 0.303661 0.525739
vt 0.929148 0.775190
vt 0.952232 0.650406
vt 0.822872 0.800300
vt 0.298014 0.463499
vt 0.923491 0.837521
vt 0.963588 0.607723
vt 0.309826 0.845174
vt 0.835681 0.842562
vt 0.794953 0.419946
vt 0.309826 0.889993
vt 0.308352 0.420895
vt 0.933739 0.880225
vt 0.750133 0.419946
s 0
usemtl マテリアル
f 2/3/1 3/6/1 27/45/1
f 7/13/2 4/9/2 1/1/2
f 15/27/3 10/20/3 7/13/3
f 16/29/1 30/50/1 17/32/1
f 29/48/4 5/10/4 28/46/4
f 5/11/5 8/17/5 2/4/5
f 23/41/6 1/2/6 21/39/6
f 24/42/7 6/12/7 22/40/7
f 13/25/8 9/18/8 8/15/8
f 29/48/9 19/36/9 11/22/9
f 11/23/10 16/31/10 8/17/10
f 23/41/11 15/28/11 7/14/11
f 26/44/12 12/24/12 24/42/12
f 18/35/12 24/42/12 10/21/12
f 9/19/11 25/43/11 23/41/11
f 10/21/7 22/40/7 4/8/7
f 9/19/13 21/39/13 3/7/13
f 20/38/12 29/49/12 12/24/12
f 12/24/7 28/47/7 6/12/7
f 2/5/13 8/16/13 9/19/13
f 2/5/13 9/19/13 3/7/13
f 7/13/2 10/20/2 4/9/2
f 15/27/3 18/34/3 10/20/3
f 9/19/11 8/16/11 17/33/11
f 8/16/11 16/30/11 17/33/11
f 29/48/4 11/22/4 5/10/4
f 5/11/5 11/23/5 8/17/5
f 23/41/14 7/14/14 1/2/14
f 24/42/7 12/24/7 6/12/7
f 13/25/15 14/26/15 9/18/15
f 29/48/9 31/51/9 19/36/9
f 11/23/10 19/37/10 16/31/10
f 23/41/11 25/43/11 15/28/11
f 26/44/12 20/38/12 12/24/12
f 18/35/12 26/44/12 24/42/12
f 9/19/11 17/33/11 25/43/11
f 10/21/7 24/42/7 22/40/7
f 9/19/13 23/41/13 21/39/13
f 20/38/12 31/52/12 29/49/12
f 12/24/7 29/49/7 28/47/7
f 33/55/1 57/99/1 55/97/1
f 40/66/16 43/72/16 46/77/16
f 42/70/17 68/116/17 66/112/17
f 32/54/2 40/66/2 34/56/2
f 36/60/18 66/112/18 64/108/18
f 34/57/18 58/100/18 56/98/18
f 47/79/19 50/84/19 44/73/19
f 60/102/20 52/91/20 62/106/20
f 38/64/17 67/114/17 65/110/17
f 40/67/17 60/102/17 58/100/17
f 41/68/21 44/73/21 38/63/21
f 57/99/22 45/75/22 59/101/22
f 69/119/23 53/93/23 70/122/23
f 61/104/24 54/95/24 62/105/24
f 45/75/25 61/103/25 59/101/25
f 68/116/20 54/96/20 70/123/20
f 46/77/26 49/81/26 52/89/26
f 67/114/27 50/86/27 69/118/27
f 59/101/25 49/82/25 43/71/25
f 49/83/24 62/105/24 52/90/24
f 37/62/22 59/101/22 43/71/22
f 58/100/17 48/80/17 42/70/17
f 48/80/20 62/106/20 54/96/20
f 56/98/18 42/70/18 36/60/18
f 55/97/1 37/62/1 32/53/1
f 67/115/25 51/87/25 45/75/25
f 68/117/28 53/94/28 47/78/28
f 51/88/24 70/125/24 54/95/24
f 39/65/22 67/115/22 45/75/22
f 63/107/1 39/65/1 33/55/1
f 64/109/1 41/69/1 35/58/1
f 41/69/22 68/117/22 47/78/22
f 33/55/1 39/65/1 57/99/1
f 35/59/5 41/68/5 38/63/5
f 40/66/16 37/61/16 43/72/16
f 42/70/17 48/80/17 68/116/17
f 32/54/2 37/61/2 40/66/2
f 36/60/18 42/70/18 66/112/18
f 34/57/18 40/67/18 58/100/18
f 47/79/19 53/92/19 50/84/19
f 60/102/20 46/76/20 52/91/20
f 38/64/17 44/74/17 67/114/17
f 40/67/17 46/76/17 60/102/17
f 41/68/21 47/79/21 44/73/21
f 57/99/22 39/65/22 45/75/22
f 69/119/23 50/85/23 53/93/23
f 61/104/24 51/88/24 54/95/24
f 45/75/25 51/87/25 61/103/25
f 68/116/20 48/80/20 54/96/20
f 46/77/26 43/72/26 49/81/26
f 67/114/27 44/74/27 50/86/27
f 59/101/25 61/103/25 49/82/25
f 49/83/24 61/104/24 62/105/24
f 37/62/22 57/99/22 59/101/22
f 58/100/17 60/102/17 48/80/17
f 48/80/20 60/102/20 62/106/20
f 56/98/18 58/100/18 42/70/18
f 55/97/1 57/99/1 37/62/1
f 67/115/25 69/120/25 51/87/25
f 68/117/28 70/124/28 53/94/28
f 51/88/24 69/121/24 70/125/24
f 39/65/22 65/111/22 67/115/22
f 63/107/1 65/111/1 39/65/1
f 64/109/1 66/113/1 41/69/1
f 41/69/22 66/113/22 68/117/22
